<svg width="2000" height="2000" viewBox="0 0 2000 2000" fill="none" xmlns="http://www.w3.org/2000/svg">
<g id="A701"><polygon points="690.5,205.5 432,566 432,711 713,448.5 731.5,436.5 758.5,436.5 803,436.5 1194,515 1194,304 731.5,192" fill="#F1FA7A" fill-opacity="0.3" stroke="#F6FF00"/></g>
<g id="A702"><polygon points="1498.5,588.5 1196,523.5 1196,306 1498.5,386" fill="#FB8282" fill-opacity="0.3" stroke="#FF2200"/></g>
<g id="A602"><polygon points="1498.5,751.5 1196,691.5 1196,526 1498.5,588.5" fill="#FB8282" fill-opacity="0.3" stroke="#FF2200"/></g>
<g id="A502"><polygon points="1498.5,915.5 1196,862 1196,690 1498.5,752.5" fill="#FB8282" fill-opacity="0.3" stroke="#FF2200"/></g>
<g id="A402"><polygon points="1499.5,1082 1197,1040 1197,862 1499.5,917" fill="#FB8282" fill-opacity="0.3" stroke="#FF2200"/></g>
<g id="A302"><polygon points="1499.5,1247 1197,1218 1197,1040 1499.5,1082" fill="#FB8282" fill-opacity="0.3" stroke="#FF2200"/></g>
<g id="A202"><polygon points="1499.5,1413.5 1197,1396 1197,1218 1499.5,1247.5" fill="#FB8282" fill-opacity="0.3" stroke="#FF2200"/></g>
<g id="A102"><polygon points="1499.5,1593 1197,1587.5 1197,1396 1499.5,1414" fill="#FB8282" fill-opacity="0.3" stroke="#FF2200"/></g>
<g id="A601"><polygon points="1195,518 1195,690 792.5,618.5 739,618.5 711,626.5 608.5,715.5 431.5,846.5 431.5,713 590.5,565.5 714,450.5 733.5,439 805.5,439" fill="#F1FA7A" fill-opacity="0.3" stroke="#F6FF00"/></g>
<g id="A501"><polygon points="1195,690.5 1195,866.5 794.5,803 741.5,806.5 714,813 609,886.5 431.5,1001.5 431.5,848 584.5,735.5 714,628 733.5,619 805.5,619" fill="#F1FA7A" fill-opacity="0.3" stroke="#F6FF00"/></g>
<g id="A401"><polygon points="1195,867 1195,1042 799,991.5 741.5,991.5 714,998 605.5,1055 431.5,1138.5 431.5,1004.5 580,907 714,813 733.5,804 805.5,804" fill="#F1FA7A" fill-opacity="0.3" stroke="#F6FF00"/></g>
<g id="A301"><polygon points="1195,1043 1195,1217.5 799,1181.5 741.5,1181.5 714,1188 599,1231.5 431.5,1290 431.5,1140 571.5,1073 714,1003 733.5,994 805.5,994" fill="#F1FA7A" fill-opacity="0.3" stroke="#F6FF00"/></g>
<g id="A201"><polygon points="1195.5,1219 1195.5,1393.5 800.5,1371.5 744.5,1371.5 717,1371.5 600.5,1404.5 432,1451 432,1292 570,1243.5 717.5,1187 742,1183 807.5,1183" fill="#F1FA7A" fill-opacity="0.3" stroke="#F6FF00"/></g>
<g id="A101"><polygon points="1195.5,1394 1195.5,1568.5 800.5,1546.5 744.5,1546.5 717,1546.5 605.5,1559.5 432,1592 432,1452.5 568.5,1414.5 717,1373.5 744.5,1373.5 808,1373.5" fill="#F1FA7A" fill-opacity="0.3" stroke="#F6FF00"/></g>
</svg>