<svg width="2000" height="2000" viewBox="0 0 2000 2000" fill="none" xmlns="http://www.w3.org/2000/svg">
<rect width="2000" height="2000" fill="white"/>
<g id="B701"><polygon points="668.729,131.671 387.5,523.428 387.5,681 693.207,395.74 713.334,382.699 742.708,382.699 791.121,382.699 1216.5,468.006 1216.5,238.711 713.334,117" fill="#F1FA7A" fill-opacity="0.3" stroke="#F6FF00"/></g>
<g id="B702"><polygon points="1538.5,548 1208.5,477.363 1208.5,241 1538.5,327.938" fill="#FB8282" fill-opacity="0.3" stroke="#FF2200"/></g>
<g id="B602"><polygon points="1538.5,726 1208.5,660.812 1208.5,481 1538.5,548.905" fill="#FB8282" fill-opacity="0.3" stroke="#FF2200"/></g>
<g id="B502"><polygon points="1538.5,903 1208.5,845.111 1208.5,659 1538.5,726.627" fill="#FB8282" fill-opacity="0.3" stroke="#FF2200"/></g>
<g id="B402"><polygon points="1539.5,1086 1209.5,1040.18 1209.5,846 1539.5,906" fill="#FB8282" fill-opacity="0.3" stroke="#FF2200"/></g>
<g id="B302"><polygon points="1539.5,1265 1209.5,1233.34 1209.5,1039 1539.5,1084.86" fill="#FB8282" fill-opacity="0.3" stroke="#FF2200"/></g>
<g id="B202"><polygon points="1539.5,1445 1209.5,1426.02 1209.5,1233 1539.5,1264.99" fill="#FB8282" fill-opacity="0.3" stroke="#FF2200"/></g>
<g id="B102"><polygon points="1539.5,1641 1209.5,1635.03 1209.5,1427 1539.5,1446.55" fill="#FB8282" fill-opacity="0.3" stroke="#FF2200"/></g>
<g id="B601"><polygon points="1207.5,471.27 1207.5,659.098 769.415,581.018 711.186,581.018 680.71,589.755 569.148,686.945 376.5,830 376.5,684.215 549.557,523.141 683.975,397.558 705.199,385 783.565,385" fill="#F1FA7A" fill-opacity="0.3" stroke="#F6FF00"/></g>
<g id="B501"><polygon points="1207.5,659.762 1207.5,851.176 771.592,782.115 713.907,785.922 683.975,792.991 569.693,872.928 376.5,998 376.5,831.056 543.027,708.703 683.975,591.788 705.199,582 783.565,582" fill="#F1FA7A" fill-opacity="0.3" stroke="#F6FF00"/></g>
<g id="B401"><polygon points="1207.5,850.744 1207.5,1041.7 776.49,986.596 713.907,986.596 683.975,993.689 565.883,1055.89 376.5,1147 376.5,1000.78 538.129,894.392 683.975,791.821 705.199,782 783.565,782" fill="#F1FA7A" fill-opacity="0.3" stroke="#F6FF00"/></g>
<g id="B301"><polygon points="1207.5,1042.3 1207.5,1232.13 776.49,1192.97 713.907,1192.97 683.975,1200.04 558.808,1247.36 376.5,1311 376.5,1147.82 528.877,1074.94 683.975,998.791 705.199,989 783.565,989" fill="#F1FA7A" fill-opacity="0.3" stroke="#F6FF00"/></g>
<g id="B201"><polygon points="1207.5,1233.36 1207.5,1424.14 777.579,1400.08 716.628,1400.08 686.696,1400.08 559.897,1436.16 376.5,1487 376.5,1313.17 526.7,1260.14 687.241,1198.37 713.907,1194 785.197,1194" fill="#F1FA7A" fill-opacity="0.3" stroke="#F6FF00"/></g>
<g id="B101"><polygon points="1207.5,1424.33 1207.5,1614.4 777.579,1590.44 716.628,1590.44 686.696,1590.44 565.339,1604.6 376.5,1640 376.5,1488.05 525.068,1446.66 686.696,1402 716.628,1402 785.742,1402" fill="#F1FA7A" fill-opacity="0.3" stroke="#F6FF00"/></g>
</svg>